<svg id="Group_9538" data-name="Group 9538" xmlns="http://www.w3.org/2000/svg" xmlns:xlink="http://www.w3.org/1999/xlink" width="396.37" height="278.194" viewBox="0 0 396.37 278.194"><defs><clipPath id="clip-path"><rect id="Rectangle_3444" data-name="Rectangle 3444" width="396.37" height="278.194" fill="none"/></clipPath><clipPath id="clip-path-3"><rect id="Rectangle_3440" data-name="Rectangle 3440" width="11.803" height="15.616" transform="translate(36.176 246.619)" fill="none"/></clipPath><clipPath id="clip-path-4"><rect id="Rectangle_3441" data-name="Rectangle 3441" width="9.207" height="13.683" transform="translate(40.236 248.283)" fill="none"/></clipPath><clipPath id="clip-path-5"><rect id="Rectangle_3442" data-name="Rectangle 3442" width="11.256" height="12.054" transform="translate(35.222 250.673)" fill="none"/></clipPath></defs><g id="Group_9537" data-name="Group 9537" clip-path="url(#clip-path)"><g id="Group_9536" data-name="Group 9536"><g id="Group_9535" data-name="Group 9535" clip-path="url(#clip-path)"><path id="Path_4138" data-name="Path 4138" d="M380.708,92.758c-2.3,0-5.221,2.287-6.265,3.305-46.78,46.759-65.366,67.6-86.041,82.338a4.392,4.392,0,0,1-2.505,1.016c-1.881,0-2.925-1.525-2.925-3.557a6.808,6.808,0,0,1,1.253-3.558c18.17-24.143,38.845-44.981,60.145-65.058a1.625,1.625,0,0,0,.836-1.525c0-3.812-10.024-18.551-19.213-18.551a3.855,3.855,0,0,0-2.506.762c-28.546,27.747-53.159,49.492-60.57,70.974-13.893,14.387-33.4,29.408-37.166,29.408-.835,0-1.253-1.016-1.253-2.8,0-13.723,27.984-54.638,119.035-162.644.627-.762,1.881-2.542,1.881-4.067,0-6.1-20.049-18.805-25.27-18.805-4.385,0-6.473.508-10.65,4.828C256.449,58.2,211.967,101.4,161.012,154.513c-2.924,3.048-5.43,5.337-6.266,5.337-.417,0-.626,0-.626-.509,0-.762,1.253-2.8,4.594-7.624.627-1.017,2.3-2.8,83.744-112.581,1.879-2.8,2.923-5.337,2.923-7.878,0-11.182-20.465-21.855-27.358-21.855-2.714,0-3.34.762-5.638,3.3C142.843,91.233,33.622,201.019,17.125,201.019c-1.88,0-3.133-1.271-3.133-4.828,0-17.79,48.867-65.313,63.9-75.732a3.1,3.1,0,0,0,.208-1.017c0-2.795-3.341-5.337-4.8-5.337-4.177,0-23.807,12.707-44.9,34.563C17.542,160.1,0,181.45,0,198.985c0,10.929,14.2,28.464,18.586,30.242a16.312,16.312,0,0,0,5.221,1.271c8.145,0,18.587-7.624,24.016-12.453C81.237,188.058,97.108,167.981,166.859,92.25c1.88-2.033,2.924-3.3,3.55-3.3.418,0,.626.509.626,1.016A5.087,5.087,0,0,1,170.2,92.5c-21.927,31.005-47.2,59.975-66.409,94.029a18.509,18.509,0,0,0-2.715,9.149c0,6.608,11.9,32.529,18.8,32.529.627,0,.835-.255,1.462-1.017,9.815-11.69,20.884-24.9,117.783-126.049,1.254-1.27,2.3-2.034,3.133-2.034a.773.773,0,0,1,.835.764,2.8,2.8,0,0,1-.835,1.778c-28.61,34.054-40.932,55.147-40.932,75.732,0,16.264,10.233,29.224,20.674,29.224,9.645,0,27.094-14.806,39.523-28.14A65.366,65.366,0,0,0,264.6,188.82c5.012,11.69,8.562,14.232,12.948,14.232,2.924,0,7.727,0,34.25-26.685a2.579,2.579,0,0,1,1.461-1.016c.209,0,.418.254.418.763a4.537,4.537,0,0,1-1.044,2.287c-13.479,16.184-22.937,27.662-33.3,41.724-1.679,2.278-14.874,17.38-14.874,32.628,0,14.485,10.86,24.9,13.365,24.9,1.88,0,5.43-8.895,7.518-12.707,30.491-53.622,52.975-82.23,90.774-128.228,9.607-11.69,20.257-22.109,20.257-25.159,0-10.166-11.485-18.806-15.662-18.806" fill="#4a556d"/><path id="Path_4139" data-name="Path 4139" d="M12.8,247.316H2.69a2.523,2.523,0,0,0-2.523,2.523v24.147a2.522,2.522,0,0,0,2.523,2.523H4.4a2.523,2.523,0,0,0,2.523-2.523v-3a2.523,2.523,0,0,1,2.522-2.523H12.8c7.8,0,12.678-4.045,12.678-10.552,0-6.547-4.879-10.592-12.678-10.592m-.375,15.639H9.445a2.522,2.522,0,0,1-2.522-2.523v-5.089a2.523,2.523,0,0,1,2.522-2.523h2.983c4.129,0,6.214,1.877,6.214,5.088,0,3.17-2.085,5.047-6.214,5.047" fill="#4a556d"/><path id="Path_4140" data-name="Path 4140" d="M70.892,255.573c0-1.835,1.543-3.337,5.547-3.337a15.583,15.583,0,0,1,5.858,1.207,2.5,2.5,0,0,0,3.243-1.4l.2-.494a2.524,2.524,0,0,0-1.378-3.292,21.417,21.417,0,0,0-7.882-1.443c-8.3,0-12.3,4.129-12.3,9.091,0,10.844,16.974,7.09,16.974,12.554,0,1.793-1.626,3.128-5.63,3.128a17.541,17.541,0,0,1-7.426-1.736,2.505,2.505,0,0,0-3.36,1.248l-.227.5a2.532,2.532,0,0,0,1.222,3.322,23.276,23.276,0,0,0,9.75,2.083c8.34,0,12.386-4.17,12.386-9.05,0-10.718-16.974-7.006-16.974-12.386" fill="#4a556d"/><path id="Path_4141" data-name="Path 4141" d="M97.5,255.573c0-1.835,1.543-3.337,5.547-3.337a15.583,15.583,0,0,1,5.858,1.207,2.5,2.5,0,0,0,3.243-1.4l.2-.494a2.524,2.524,0,0,0-1.378-3.292,21.417,21.417,0,0,0-7.882-1.443c-8.3,0-12.3,4.129-12.3,9.091,0,10.844,16.974,7.09,16.974,12.554,0,1.793-1.626,3.128-5.63,3.128a17.541,17.541,0,0,1-7.426-1.736,2.505,2.505,0,0,0-3.36,1.248l-.227.5a2.532,2.532,0,0,0,1.222,3.322,23.276,23.276,0,0,0,9.75,2.083c8.34,0,12.386-4.17,12.386-9.05,0-10.718-16.974-7.006-16.974-12.386" fill="#4a556d"/><path id="Path_4142" data-name="Path 4142" d="M131.63,247.316H119.785a2.522,2.522,0,0,0-2.523,2.523v.376a2.522,2.522,0,0,0,2.523,2.522h.042a2.524,2.524,0,0,1,2.523,2.523v13.305a2.524,2.524,0,0,1-2.523,2.523h-.042a2.522,2.522,0,0,0-2.523,2.523v.375a2.522,2.522,0,0,0,2.523,2.523H131.63a2.523,2.523,0,0,0,2.523-2.523v-.375a2.523,2.523,0,0,0-2.523-2.523h0a2.524,2.524,0,0,1-2.523-2.523V255.26a2.524,2.524,0,0,1,2.523-2.523h0a2.523,2.523,0,0,0,2.523-2.522v-.376a2.523,2.523,0,0,0-2.523-2.523" fill="#4a556d"/><path id="Path_4143" data-name="Path 4143" d="M163.5,262.84a2.571,2.571,0,0,1-.353-3.572,7.083,7.083,0,0,0,1.409-4.362c0-4.546-3.754-7.59-11.052-7.59h-11.74a2.523,2.523,0,0,0-2.523,2.523v24.147a2.523,2.523,0,0,0,2.523,2.523h12.574c7.674,0,11.678-2.919,11.678-7.966a7.139,7.139,0,0,0-2.516-5.7m-17.544-7.913a2.522,2.522,0,0,1,2.522-2.523h4.192c3.295,0,5.088,1.125,5.088,3.42s-1.793,3.461-5.088,3.461h-4.192a2.523,2.523,0,0,1-2.522-2.523Zm7.882,16.494h-5.36a2.522,2.522,0,0,1-2.522-2.523v-2.17a2.522,2.522,0,0,1,2.522-2.522h5.36c3.5,0,5.38,1.168,5.38,3.628,0,2.5-1.877,3.587-5.38,3.587" fill="#4a556d"/><path id="Path_4144" data-name="Path 4144" d="M183.673,247.316H171.827a2.522,2.522,0,0,0-2.523,2.523v.376a2.522,2.522,0,0,0,2.523,2.522h.042a2.524,2.524,0,0,1,2.523,2.523v13.305a2.524,2.524,0,0,1-2.523,2.523h-.042a2.522,2.522,0,0,0-2.523,2.523v.375a2.522,2.522,0,0,0,2.523,2.523h11.846a2.523,2.523,0,0,0,2.522-2.523v-.375a2.523,2.523,0,0,0-2.522-2.523h0a2.524,2.524,0,0,1-2.523-2.523V255.26a2.524,2.524,0,0,1,2.523-2.523h0a2.522,2.522,0,0,0,2.522-2.522v-.376a2.523,2.523,0,0,0-2.522-2.523" fill="#4a556d"/><path id="Path_4145" data-name="Path 4145" d="M210.152,271h-9.593a2.523,2.523,0,0,1-2.523-2.523V249.839a2.523,2.523,0,0,0-2.523-2.523H193.8a2.524,2.524,0,0,0-2.523,2.523v24.148a2.523,2.523,0,0,0,2.523,2.522h16.349a2.523,2.523,0,0,0,2.523-2.522v-.46A2.523,2.523,0,0,0,210.152,271" fill="#4a556d"/><path id="Path_4146" data-name="Path 4146" d="M229,247.316H217.156a2.522,2.522,0,0,0-2.523,2.523v.376a2.522,2.522,0,0,0,2.523,2.522h.042a2.524,2.524,0,0,1,2.523,2.523v13.305a2.524,2.524,0,0,1-2.523,2.523h-.042a2.522,2.522,0,0,0-2.523,2.523v.375a2.522,2.522,0,0,0,2.523,2.523H229a2.523,2.523,0,0,0,2.523-2.523v-.375A2.523,2.523,0,0,0,229,271.088a2.524,2.524,0,0,1-2.523-2.523V255.26A2.524,2.524,0,0,1,229,252.737a2.523,2.523,0,0,0,2.523-2.522v-.376A2.523,2.523,0,0,0,229,247.316" fill="#4a556d"/><path id="Path_4147" data-name="Path 4147" d="M257.919,249.249a28.3,28.3,0,0,0-23.049.04,2.517,2.517,0,0,0-1.2,3.323l.2.437a2.556,2.556,0,0,0,3.323,1.322,22.1,22.1,0,0,1,2.662-.974,2.523,2.523,0,0,1,3.215,2.433v18.157a2.523,2.523,0,0,0,2.523,2.522h1.711a2.523,2.523,0,0,0,2.523-2.522V255.826a2.524,2.524,0,0,1,3.218-2.433,21.254,21.254,0,0,1,2.651.978,2.511,2.511,0,0,0,3.277-1.3l.215-.472a2.541,2.541,0,0,0-1.272-3.354" fill="#4a556d"/><g id="Group_9528" data-name="Group 9528" opacity="0.4"><g id="Group_9527" data-name="Group 9527"><g id="Group_9526" data-name="Group 9526" clip-path="url(#clip-path-3)"><path id="Path_4148" data-name="Path 4148" d="M47.132,252.391c1.681,4.161.78,8.448-2.012,9.572s-6.418-1.339-8.1-5.5-.78-8.448,2.011-9.572,6.418,1.339,8.1,5.5" fill="#00a0df" fill-rule="evenodd"/></g></g></g><path id="Path_4149" data-name="Path 4149" d="M41.045,253.072c3.826,2.346,5.651,6.327,4.076,8.891s-5.956,2.742-9.782.4-5.651-6.327-4.076-8.891,5.956-2.742,9.782-.4" fill="none" stroke="#00a0df" stroke-miterlimit="10" stroke-width="0.5"/><path id="Path_4150" data-name="Path 4150" d="M36.556,257.24c4.471-.39,8.306,1.725,8.565,4.723s-3.157,5.746-7.628,6.136-8.307-1.725-8.566-4.723,3.158-5.746,7.629-6.136" fill="none" stroke="#00a0df" stroke-miterlimit="10" stroke-width="0.5"/><path id="Path_4151" data-name="Path 4151" d="M35.426,263.26c3.362-2.973,7.7-3.554,9.695-1.3s.879,6.5-2.483,9.47-7.7,3.553-9.695,1.3-.879-6.5,2.483-9.47" fill="none" stroke="#00a0df" stroke-miterlimit="10" stroke-width="0.5"/><path id="Path_4152" data-name="Path 4152" d="M38.1,268.772c.935-4.389,4.079-7.439,7.022-6.809s4.571,4.7,3.636,9.089-4.079,7.439-7.022,6.81-4.571-4.7-3.636-9.09" fill="none" stroke="#00a0df" stroke-miterlimit="10" stroke-width="0.5"/><path id="Path_4153" data-name="Path 4153" d="M43.526,271.613c-1.859-4.085-1.145-8.406,1.594-9.65s6.471,1.059,8.331,5.144,1.145,8.406-1.6,9.65-6.471-1.059-8.329-5.144" fill="none" stroke="#00a0df" stroke-miterlimit="10" stroke-width="0.5"/><path id="Path_4154" data-name="Path 4154" d="M49.578,270.67c-3.924-2.178-5.92-6.077-4.457-8.706s5.831-3,9.755-.819,5.921,6.076,4.458,8.706-5.832,3-9.756.819" fill="none" stroke="#00a0df" stroke-miterlimit="10" stroke-width="0.5"/><path id="Path_4155" data-name="Path 4155" d="M53.882,266.311c-4.45.583-8.373-1.364-8.761-4.348s2.905-5.878,7.355-6.46,8.373,1.363,8.762,4.347-2.906,5.878-7.356,6.461" fill="none" stroke="#00a0df" stroke-miterlimit="10" stroke-width="0.5"/><path id="Path_4156" data-name="Path 4156" d="M54.75,260.247c-3.23,3.116-7.542,3.884-9.629,1.716s-1.16-6.453,2.07-9.569,7.543-3.884,9.63-1.716,1.159,6.453-2.071,9.569" fill="none" stroke="#00a0df" stroke-miterlimit="10" stroke-width="0.5"/><path id="Path_4157" data-name="Path 4157" d="M51.841,254.857c-.744,4.426-3.753,7.608-6.721,7.107s-4.77-4.5-4.026-8.924,3.753-7.608,6.72-7.107,4.771,4.5,4.027,8.924" fill="none" stroke="#00a0df" stroke-miterlimit="10" stroke-width="0.5"/><g id="Group_9531" data-name="Group 9531" opacity="0.4"><g id="Group_9530" data-name="Group 9530"><g id="Group_9529" data-name="Group 9529" clip-path="url(#clip-path-4)"><path id="Path_4158" data-name="Path 4158" d="M49.425,254.859c.219,3.775-1.658,6.955-4.19,7.1s-4.763-2.8-4.982-6.571,1.658-6.955,4.19-7.1,4.763,2.8,4.982,6.571" fill="#00a0df" fill-rule="evenodd"/></g></g></g><g id="Group_9534" data-name="Group 9534" opacity="0.4"><g id="Group_9533" data-name="Group 9533"><g id="Group_9532" data-name="Group 9532" clip-path="url(#clip-path-5)"><path id="Path_4159" data-name="Path 4159" d="M44.38,253.76c2.421,2.905,2.8,6.577.855,8.2s-5.492.585-7.913-2.32-2.8-6.577-.855-8.2,5.492-.585,7.913,2.32" fill="#00a0df" fill-rule="evenodd"/></g></g></g></g></g></g></svg>