<svg xmlns="http://www.w3.org/2000/svg" width="96.763" height="49.448" viewBox="0 0 96.763 49.448">
  <g id="Group_1385" data-name="Group 1385" transform="translate(9749.023 2927.67)">
    <rect id="Rectangle_175" data-name="Rectangle 175" width="6.425" height="20.69" transform="translate(-9741.222 -2914.237)" fill="#fff"/>
    <rect id="Rectangle_176" data-name="Rectangle 176" width="3.617" height="20.69" transform="translate(-9749.023 -2914.237)" fill="#fff"/>
    <rect id="Rectangle_177" data-name="Rectangle 177" width="1.785" height="24.165" transform="translate(-9744.206 -2915.974)" fill="#fff"/>
    <path id="Path_75" data-name="Path 75" d="M91.982,0H47.489C33.655,0,22.44,9.253,22.44,20.668V28.78c0,11.414,11.215,20.668,25.049,20.668H91.982c6.25,0,11.316-4.18,11.316-9.337V9.337C103.3,4.18,98.232,0,91.982,0" transform="translate(-9755.559 -2927.67)" fill="#fff"/>
    <path id="Path_76" data-name="Path 76" d="M70.79,25.1V0H83.27V29.959Z" transform="translate(-9758.641 -2927.67)" fill="#3278fa"/>
    <path id="Path_81" data-name="Path 81" d="M90.917,0V23.341l3,.946V0Z" transform="translate(-9766.288 -2927.67)" fill="#1eafeb"/>
  </g>
</svg>
